ffmpeg started on 2025-06-05 at 20:31:36
Report written to "D:\Convert\FFMetrics\reports\psnr_report-6.txt"
Log level: 32
Command line:
ffmpeg -hide_banner -nostdin -i "G:\\\xc0\xed\xe8\xec\xe5\\\xce\xed\xe3\xee\xe8\xed\xe3\xe8\\!_36_\xce\xf1\xe5\xed\xfc_2024\\DreamCast\\\xcd\xe5\xe3\xe0\xf2\xe8\xe2\xed\xfb\xe9 \xef\xee\xe7\xe8\xf2\xe8\xe2\xed\xfb\xe9 \xf0\xfb\xe1\xe0\xea\\[DC] NegaPosi Angler - 11_Telegram_HEVC.mkv" -i "G:\\\xc0\xed\xe8\xec\xe5\\\xce\xed\xe3\xee\xe8\xed\xe3\xe8\\!_36_\xce\xf1\xe5\xed\xfc_2024\\DreamCast\\\xcd\xe5\xe3\xe0\xf2\xe8\xe2\xed\xfb\xe9 \xef\xee\xe7\xe8\xf2\xe8\xe2\xed\xfb\xe9 \xf0\xfb\xe1\xe0\xea\\[DC] NegaPosi Angler - 11_Telegram.mp4" -lavfi "[0:v]settb=AVTB,setpts=PTS-STARTPTS,format=pix_fmts=yuv420p10,fps=24000/1001,scale=1920:1080:flags=bicubic[main];[1:v]settb=AVTB,setpts=PTS-STARTPTS,format=pix_fmts=yuv420p,fps=24000/1001,scale=1920:1080:flags=bicubic[ref];[main][ref]psnr=eof_action=endall:stats_file='D\\:/Convert/FFMetrics/logs/psnr_logfile-6.txt'" -f null -
Input #0, matroska,webm, from 'G:\Аниме\Онгоинги\!_36_Осень_2024\DreamCast\Негативный позитивный рыбак\[DC] NegaPosi Angler - 11_Telegram_HEVC.mkv':
  Metadata:
    COMPATIBLE_BRANDS: isomiso2avc1mp41
    MAJOR_BRAND     : isom
    MINOR_VERSION   : 512
    ENCODER         : Lavf61.7.100
  Duration: 00:23:46.73, start: -0.021000, bitrate: 901 kb/s
  Stream #0:0: Video: hevc (Main 10), yuv420p10le(tv, bt709, progressive), 1920x1080 [SAR 1:1 DAR 16:9], 23.98 fps, 23.98 tbr, 1k tbn (default)
      Metadata:
        HANDLER_NAME    : VideoHandler
        VENDOR_ID       : [0][0][0][0]
        ENCODER         : Lavc61.19.100 libx265
        BPS             : 703473
        DURATION        : 00:23:46.549708333
        NUMBER_OF_FRAMES: 34203
        NUMBER_OF_BYTES : 125442360
        _STATISTICS_WRITING_APP: mkvpropedit v66.0.0 ('Josie') 64-bit
        _STATISTICS_WRITING_DATE_UTC: 2025-05-31 14:18:49
        _STATISTICS_TAGS: BPS DURATION NUMBER_OF_FRAMES NUMBER_OF_BYTES
  Stream #0:1: Audio: aac (LC), 48000 Hz, stereo, fltp (default)
      Metadata:
        HANDLER_NAME    : SoundHandler
        VENDOR_ID       : [0][0][0][0]
        ENCODER         : Lavc61.19.100 aac
        BPS             : 193774
        DURATION        : 00:23:46.730000000
        NUMBER_OF_FRAMES: 66879
        NUMBER_OF_BYTES : 34557928
        _STATISTICS_WRITING_APP: mkvpropedit v66.0.0 ('Josie') 64-bit
        _STATISTICS_WRITING_DATE_UTC: 2025-05-31 14:18:49
        _STATISTICS_TAGS: BPS DURATION NUMBER_OF_FRAMES NUMBER_OF_BYTES
Input #1, mov,mp4,m4a,3gp,3g2,mj2, from 'G:\Аниме\Онгоинги\!_36_Осень_2024\DreamCast\Негативный позитивный рыбак\[DC] NegaPosi Angler - 11_Telegram.mp4':
  Metadata:
    major_brand     : isom
    minor_version   : 512
    compatible_brands: isomiso2avc1mp41
    encoder         : Lavf61.1.100
  Duration: 00:23:46.68, start: 0.000000, bitrate: 3793 kb/s
  Stream #1:0[0x1](und): Video: h264 (High) (avc1 / 0x31637661), yuv420p(tv, bt709, progressive), 1920x1080 [SAR 1:1 DAR 16:9], 3645 kb/s, 23.98 fps, 23.98 tbr, 24k tbn (default)
      Metadata:
        handler_name    : VideoHandler
        vendor_id       : [0][0][0][0]
        encoder         : Lavc61.3.100 h264_qsv
  Stream #1:1[0x2](und): Audio: aac (HE-AACv2) (mp4a / 0x6134706D), 48000 Hz, stereo, fltp, 144 kb/s (default)
      Metadata:
        handler_name    : SoundHandler
        vendor_id       : [0][0][0][0]
Stream mapping:
  Stream #0:0 (hevc) -> settb:default
  Stream #1:0 (h264) -> settb:default
  psnr:default -> Stream #0:0 (wrapped_avframe)
  Stream #0:1 -> #0:1 (aac (native) -> pcm_s16le (native))
Output #0, null, to 'pipe:':
  Metadata:
    COMPATIBLE_BRANDS: isomiso2avc1mp41
    MAJOR_BRAND     : isom
    MINOR_VERSION   : 512
    encoder         : Lavf61.7.100
  Stream #0:0: Video: wrapped_avframe, yuv420p10le(tv, bt709, progressive), 1920x1080 [SAR 1:1 DAR 16:9], q=2-31, 200 kb/s, 23.98 fps, 23.98 tbn
      Metadata:
        encoder         : Lavc61.19.100 wrapped_avframe
  Stream #0:1: Audio: pcm_s16le, 48000 Hz, stereo, s16, 1536 kb/s (default)
      Metadata:
        HANDLER_NAME    : SoundHandler
        VENDOR_ID       : [0][0][0][0]
        _STATISTICS_TAGS: BPS DURATION NUMBER_OF_FRAMES NUMBER_OF_BYTES
        BPS             : 193774
        DURATION        : 00:23:46.730000000
        NUMBER_OF_FRAMES: 66879
        NUMBER_OF_BYTES : 34557928
        _STATISTICS_WRITING_APP: mkvpropedit v66.0.0 ('Josie') 64-bit
        _STATISTICS_WRITING_DATE_UTC: 2025-05-31 14:18:49
        encoder         : Lavc61.19.100 pcm_s16le
frame=  165 fps=0.0 q=-0.0 size=N/A time=00:00:06.88 bitrate=N/A speed=13.4x    frame=  412 fps=403 q=-0.0 size=N/A time=00:00:17.18 bitrate=N/A speed=16.8x    frame=  655 fps=427 q=-0.0 size=N/A time=00:00:27.31 bitrate=N/A speed=17.8x    frame=  895 fps=436 q=-0.0 size=N/A time=00:00:37.32 bitrate=N/A speed=18.2x    frame= 1155 fps=447 q=-0.0 size=N/A time=00:00:48.17 bitrate=N/A speed=18.7x    frame= 1411 fps=455 q=-0.0 size=N/A time=00:00:58.85 bitrate=N/A speed=  19x    frame= 1663 fps=460 q=-0.0 size=N/A time=00:01:09.36 bitrate=N/A speed=19.2x    frame= 1929 fps=466 q=-0.0 size=N/A time=00:01:20.45 bitrate=N/A speed=19.5x    frame= 2183 fps=469 q=-0.0 size=N/A time=00:01:31.04 bitrate=N/A speed=19.5x    frame= 2407 fps=466 q=-0.0 size=N/A time=00:01:40.39 bitrate=N/A speed=19.5x    frame= 2634 fps=463 q=-0.0 size=N/A time=00:01:49.85 bitrate=N/A speed=19.3x    frame= 2851 fps=460 q=-0.0 size=N/A time=00:01:58.91 bitrate=N/A speed=19.2x    frame= 3021 fps=450 q=-0.0 size=N/A time=00:02:06.00 bitrate=N/A speed=18.7x    frame= 3192 fps=441 q=-0.0 size=N/A time=00:02:13.13 bitrate=N/A speed=18.4x    frame= 3367 fps=435 q=-0.0 size=N/A time=00:02:20.43 bitrate=N/A speed=18.1x    frame= 3587 fps=434 q=-0.0 size=N/A time=00:02:29.60 bitrate=N/A speed=18.1x    frame= 3755 fps=428 q=-0.0 size=N/A time=00:02:36.61 bitrate=N/A speed=17.8x    frame= 3947 fps=425 q=-0.0 size=N/A time=00:02:44.62 bitrate=N/A speed=17.7x    frame= 4146 fps=422 q=-0.0 size=N/A time=00:02:52.92 bitrate=N/A speed=17.6x    frame= 4324 fps=419 q=-0.0 size=N/A time=00:03:00.34 bitrate=N/A speed=17.5x    frame= 4527 fps=418 q=-0.0 size=N/A time=00:03:08.81 bitrate=N/A speed=17.4x    frame= 4737 fps=417 q=-0.0 size=N/A time=00:03:17.57 bitrate=N/A speed=17.4x    frame= 4980 fps=420 q=-0.0 size=N/A time=00:03:27.74 bitrate=N/A speed=17.5x    frame= 5232 fps=422 q=-0.0 size=N/A time=00:03:38.21 bitrate=N/A speed=17.6x    frame= 5459 fps=423 q=-0.0 size=N/A time=00:03:47.68 bitrate=N/A speed=17.7x    frame= 5686 fps=424 q=-0.0 size=N/A time=00:03:57.15 bitrate=N/A speed=17.7x    frame= 5945 fps=427 q=-0.0 size=N/A time=00:04:07.95 bitrate=N/A speed=17.8x    frame= 6202 fps=429 q=-0.0 size=N/A time=00:04:18.67 bitrate=N/A speed=17.9x    frame= 6476 fps=432 q=-0.0 size=N/A time=00:04:30.10 bitrate=N/A speed=  18x    frame= 6731 fps=434 q=-0.0 size=N/A time=00:04:40.73 bitrate=N/A speed=18.1x    frame= 6993 fps=437 q=-0.0 size=N/A time=00:04:51.66 bitrate=N/A speed=18.2x    frame= 7256 fps=439 q=-0.0 size=N/A time=00:05:02.63 bitrate=N/A speed=18.3x    frame= 7504 fps=440 q=-0.0 size=N/A time=00:05:12.97 bitrate=N/A speed=18.4x    frame= 7777 fps=443 q=-0.0 size=N/A time=00:05:24.36 bitrate=N/A speed=18.5x    frame= 8025 fps=444 q=-0.0 size=N/A time=00:05:34.70 bitrate=N/A speed=18.5x    frame= 8280 fps=445 q=-0.0 size=N/A time=00:05:45.34 bitrate=N/A speed=18.6x    frame= 8546 fps=447 q=-0.0 size=N/A time=00:05:56.43 bitrate=N/A speed=18.7x    frame= 8792 fps=448 q=-0.0 size=N/A time=00:06:06.69 bitrate=N/A speed=18.7x    frame= 9060 fps=450 q=-0.0 size=N/A time=00:06:17.87 bitrate=N/A speed=18.8x    frame= 9309 fps=451 q=-0.0 size=N/A time=00:06:28.26 bitrate=N/A speed=18.8x    frame= 9571 fps=452 q=-0.0 size=N/A time=00:06:39.19 bitrate=N/A speed=18.9x    frame= 9829 fps=453 q=-0.0 size=N/A time=00:06:49.95 bitrate=N/A speed=18.9x    frame=10082 fps=454 q=-0.0 size=N/A time=00:07:00.50 bitrate=N/A speed=18.9x    frame=10332 fps=455 q=-0.0 size=N/A time=00:07:10.93 bitrate=N/A speed=  19x    frame=10598 fps=456 q=-0.0 size=N/A time=00:07:22.02 bitrate=N/A speed=  19x    frame=10856 fps=457 q=-0.0 size=N/A time=00:07:32.78 bitrate=N/A speed=19.1x    frame=11110 fps=458 q=-0.0 size=N/A time=00:07:43.37 bitrate=N/A speed=19.1x    frame=11386 fps=459 q=-0.0 size=N/A time=00:07:54.89 bitrate=N/A speed=19.2x    frame=11629 fps=460 q=-0.0 size=N/A time=00:08:05.02 bitrate=N/A speed=19.2x    frame=11873 fps=460 q=-0.0 size=N/A time=00:08:15.20 bitrate=N/A speed=19.2x    frame=12131 fps=461 q=-0.0 size=N/A time=00:08:25.96 bitrate=N/A speed=19.2x    frame=12396 fps=461 q=-0.0 size=N/A time=00:08:37.01 bitrate=N/A speed=19.2x    frame=12638 fps=462 q=-0.0 size=N/A time=00:08:47.10 bitrate=N/A speed=19.3x    frame=12883 fps=462 q=-0.0 size=N/A time=00:08:57.32 bitrate=N/A speed=19.3x    frame=13124 fps=462 q=-0.0 size=N/A time=00:09:07.38 bitrate=N/A speed=19.3x    frame=13366 fps=462 q=-0.0 size=N/A time=00:09:17.47 bitrate=N/A speed=19.3x    frame=13618 fps=463 q=-0.0 size=N/A time=00:09:27.98 bitrate=N/A speed=19.3x    frame=13872 fps=463 q=-0.0 size=N/A time=00:09:38.57 bitrate=N/A speed=19.3x    frame=14116 fps=463 q=-0.0 size=N/A time=00:09:48.75 bitrate=N/A speed=19.3x    frame=14384 fps=464 q=-0.0 size=N/A time=00:09:59.93 bitrate=N/A speed=19.4x    frame=14640 fps=465 q=-0.0 size=N/A time=00:10:10.61 bitrate=N/A speed=19.4x    frame=14915 fps=466 q=-0.0 size=N/A time=00:10:22.07 bitrate=N/A speed=19.4x    frame=15182 fps=467 q=-0.0 size=N/A time=00:10:33.21 bitrate=N/A speed=19.5x    frame=15450 fps=468 q=-0.0 size=N/A time=00:10:44.39 bitrate=N/A speed=19.5x    frame=15720 fps=468 q=-0.0 size=N/A time=00:10:55.65 bitrate=N/A speed=19.5x    frame=15955 fps=468 q=-0.0 size=N/A time=00:11:05.45 bitrate=N/A speed=19.5x    frame=16199 fps=468 q=-0.0 size=N/A time=00:11:15.63 bitrate=N/A speed=19.5x    frame=16453 fps=468 q=-0.0 size=N/A time=00:11:26.22 bitrate=N/A speed=19.5x    frame=16714 fps=469 q=-0.0 size=N/A time=00:11:37.11 bitrate=N/A speed=19.6x    frame=16983 fps=470 q=-0.0 size=N/A time=00:11:48.33 bitrate=N/A speed=19.6x    frame=17243 fps=470 q=-0.0 size=N/A time=00:11:59.17 bitrate=N/A speed=19.6x    frame=17518 fps=471 q=-0.0 size=N/A time=00:12:10.64 bitrate=N/A speed=19.6x    frame=17762 fps=471 q=-0.0 size=N/A time=00:12:20.82 bitrate=N/A speed=19.7x    frame=17997 fps=471 q=-0.0 size=N/A time=00:12:30.62 bitrate=N/A speed=19.6x    frame=18252 fps=471 q=-0.0 size=N/A time=00:12:41.26 bitrate=N/A speed=19.7x    frame=18500 fps=471 q=-0.0 size=N/A time=00:12:51.60 bitrate=N/A speed=19.7x    frame=18751 fps=472 q=-0.0 size=N/A time=00:13:02.07 bitrate=N/A speed=19.7x    frame=19019 fps=472 q=-0.0 size=N/A time=00:13:13.25 bitrate=N/A speed=19.7x    frame=19265 fps=472 q=-0.0 size=N/A time=00:13:23.51 bitrate=N/A speed=19.7x    frame=19504 fps=472 q=-0.0 size=N/A time=00:13:33.47 bitrate=N/A speed=19.7x    frame=19749 fps=472 q=-0.0 size=N/A time=00:13:43.69 bitrate=N/A speed=19.7x    frame=19924 fps=471 q=-0.0 size=N/A time=00:13:50.99 bitrate=N/A speed=19.6x    frame=20132 fps=470 q=-0.0 size=N/A time=00:13:59.67 bitrate=N/A speed=19.6x    frame=20356 fps=469 q=-0.0 size=N/A time=00:14:09.01 bitrate=N/A speed=19.6x    frame=20601 fps=469 q=-0.0 size=N/A time=00:14:19.23 bitrate=N/A speed=19.6x    frame=20854 fps=470 q=-0.0 size=N/A time=00:14:29.78 bitrate=N/A speed=19.6x    frame=21095 fps=470 q=-0.0 size=N/A time=00:14:39.83 bitrate=N/A speed=19.6x    frame=21273 fps=468 q=-0.0 size=N/A time=00:14:47.26 bitrate=N/A speed=19.5x    frame=21491 fps=468 q=-0.0 size=N/A time=00:14:56.35 bitrate=N/A speed=19.5x    frame=21712 fps=467 q=-0.0 size=N/A time=00:15:05.57 bitrate=N/A speed=19.5x    frame=21930 fps=467 q=-0.0 size=N/A time=00:15:14.66 bitrate=N/A speed=19.5x    frame=22132 fps=466 q=-0.0 size=N/A time=00:15:23.08 bitrate=N/A speed=19.4x    frame=22371 fps=466 q=-0.0 size=N/A time=00:15:33.05 bitrate=N/A speed=19.4x    frame=22620 fps=466 q=-0.0 size=N/A time=00:15:43.44 bitrate=N/A speed=19.4x    frame=22876 fps=466 q=-0.0 size=N/A time=00:15:54.11 bitrate=N/A speed=19.4x    frame=23121 fps=466 q=-0.0 size=N/A time=00:16:04.33 bitrate=N/A speed=19.4x    frame=23354 fps=466 q=-0.0 size=N/A time=00:16:14.05 bitrate=N/A speed=19.4x    frame=23606 fps=466 q=-0.0 size=N/A time=00:16:24.56 bitrate=N/A speed=19.5x    frame=23874 fps=467 q=-0.0 size=N/A time=00:16:35.74 bitrate=N/A speed=19.5x    frame=24133 fps=467 q=-0.0 size=N/A time=00:16:46.54 bitrate=N/A speed=19.5x    frame=24382 fps=467 q=-0.0 size=N/A time=00:16:56.93 bitrate=N/A speed=19.5x    frame=24626 fps=467 q=-0.0 size=N/A time=00:17:07.10 bitrate=N/A speed=19.5x    frame=24877 fps=467 q=-0.0 size=N/A time=00:17:17.57 bitrate=N/A speed=19.5x    frame=25129 fps=468 q=-0.0 size=N/A time=00:17:28.08 bitrate=N/A speed=19.5x    frame=25381 fps=468 q=-0.0 size=N/A time=00:17:38.59 bitrate=N/A speed=19.5x    frame=25656 fps=468 q=-0.0 size=N/A time=00:17:50.06 bitrate=N/A speed=19.5x    frame=25923 fps=469 q=-0.0 size=N/A time=00:18:01.20 bitrate=N/A speed=19.6x    frame=26176 fps=469 q=-0.0 size=N/A time=00:18:11.75 bitrate=N/A speed=19.6x    frame=26425 fps=469 q=-0.0 size=N/A time=00:18:22.14 bitrate=N/A speed=19.6x    frame=26666 fps=469 q=-0.0 size=N/A time=00:18:32.19 bitrate=N/A speed=19.6x    frame=26922 fps=470 q=-0.0 size=N/A time=00:18:42.87 bitrate=N/A speed=19.6x    frame=27184 fps=470 q=-0.0 size=N/A time=00:18:53.79 bitrate=N/A speed=19.6x    frame=27438 fps=470 q=-0.0 size=N/A time=00:19:04.39 bitrate=N/A speed=19.6x    frame=27693 fps=470 q=-0.0 size=N/A time=00:19:15.02 bitrate=N/A speed=19.6x    frame=27946 fps=470 q=-0.0 size=N/A time=00:19:25.58 bitrate=N/A speed=19.6x    frame=28195 fps=471 q=-0.0 size=N/A time=00:19:35.96 bitrate=N/A speed=19.6x    frame=28434 fps=470 q=-0.0 size=N/A time=00:19:45.93 bitrate=N/A speed=19.6x    frame=28683 fps=471 q=-0.0 size=N/A time=00:19:56.32 bitrate=N/A speed=19.6x    frame=28940 fps=471 q=-0.0 size=N/A time=00:20:07.03 bitrate=N/A speed=19.6x    frame=29192 fps=471 q=-0.0 size=N/A time=00:20:17.54 bitrate=N/A speed=19.6x    frame=29421 fps=471 q=-0.0 size=N/A time=00:20:27.10 bitrate=N/A speed=19.6x    frame=29626 fps=470 q=-0.0 size=N/A time=00:20:35.65 bitrate=N/A speed=19.6x    frame=29846 fps=470 q=-0.0 size=N/A time=00:20:44.82 bitrate=N/A speed=19.6x    frame=30092 fps=470 q=-0.0 size=N/A time=00:20:55.08 bitrate=N/A speed=19.6x    frame=30349 fps=470 q=-0.0 size=N/A time=00:21:05.80 bitrate=N/A speed=19.6x    frame=30602 fps=470 q=-0.0 size=N/A time=00:21:16.35 bitrate=N/A speed=19.6x    frame=30870 fps=471 q=-0.0 size=N/A time=00:21:27.53 bitrate=N/A speed=19.6x    frame=31082 fps=470 q=-0.0 size=N/A time=00:21:36.37 bitrate=N/A speed=19.6x    frame=31300 fps=470 q=-0.0 size=N/A time=00:21:45.47 bitrate=N/A speed=19.6x    frame=31538 fps=470 q=-0.0 size=N/A time=00:21:55.39 bitrate=N/A speed=19.6x    frame=31798 fps=470 q=-0.0 size=N/A time=00:22:06.24 bitrate=N/A speed=19.6x    frame=32040 fps=470 q=-0.0 size=N/A time=00:22:16.33 bitrate=N/A speed=19.6x    frame=32296 fps=470 q=-0.0 size=N/A time=00:22:27.01 bitrate=N/A speed=19.6x    frame=32556 fps=471 q=-0.0 size=N/A time=00:22:37.85 bitrate=N/A speed=19.6x    frame=32816 fps=471 q=-0.0 size=N/A time=00:22:48.70 bitrate=N/A speed=19.6x    frame=33084 fps=471 q=-0.0 size=N/A time=00:22:59.87 bitrate=N/A speed=19.6x    frame=33327 fps=471 q=-0.0 size=N/A time=00:23:10.01 bitrate=N/A speed=19.6x    frame=33543 fps=471 q=-0.0 size=N/A time=00:23:19.02 bitrate=N/A speed=19.6x    frame=33773 fps=471 q=-0.0 size=N/A time=00:23:28.61 bitrate=N/A speed=19.6x    frame=34009 fps=470 q=-0.0 size=N/A time=00:23:38.45 bitrate=N/A speed=19.6x    [Parsed_psnr_10 @ 000001fdd8192b80] PSNR y:48.746370 u:50.958175 v:51.247524 average:49.398764 min:42.371715 max:inf
[out#0/null @ 000001fdd8144c00] video:14697KiB audio:267516KiB subtitle:0KiB other streams:0KiB global headers:0KiB muxing overhead: unknown
frame=34203 fps=471 q=-0.0 Lsize=N/A time=00:23:46.55 bitrate=N/A speed=19.6x    
